HIERARCHY
ROOT root
{
	OFFSET 0.000000 0.000000 0.000000
	CHANNELS 6 Xposition Yposition Zposition Zrotation Yrotation Xrotation
	JOINT lhip
	{
		OFFSET 0.058581 -0.082280 -0.017664
		CHANNELS 3 Zrotation Yrotation Xrotation
		JOINT lknee
		{
			OFFSET 0.043451 -0.386469 0.008037
			CHANNELS 3 Zrotation Yrotation Xrotation
			JOINT lankle
			{
				OFFSET -0.014790 -0.426874 -0.037428
				CHANNELS 3 Zrotation Yrotation Xrotation
				JOINT ltoe
				{
					OFFSET 0.041054 -0.060286 0.122042
					CHANNELS 3 Zrotation Yrotation Xrotation
					End Site
					{
						OFFSET 0.000000 0.000000 0.000000
					}
				}
			}
		}
	}
	JOINT rhip
	{
		OFFSET -0.060310 -0.090513 -0.013543
		CHANNELS 3 Zrotation Yrotation Xrotation
		JOINT rknee
		{
			OFFSET -0.043257 -0.383688 -0.004843
			CHANNELS 3 Zrotation Yrotation Xrotation
			JOINT rankle
			{
				OFFSET 0.019056 -0.420046 -0.034562
				CHANNELS 3 Zrotation Yrotation Xrotation
				JOINT rtoe
				{
					OFFSET -0.034840 -0.062106 0.130323
					CHANNELS 3 Zrotation Yrotation Xrotation
					End Site
					{
						OFFSET 0.000000 0.000000 0.000000
					}
				}
			}
		}
	}
	JOINT lowerback
	{
		OFFSET 0.004439 0.124404 -0.038385
		CHANNELS 3 Zrotation Yrotation Xrotation
		JOINT upperback
		{
			OFFSET 0.004488 0.137956 0.026820
			CHANNELS 3 Zrotation Yrotation Xrotation
			JOINT chest
			{
				OFFSET -0.002265 0.056032 0.002855
				CHANNELS 3 Zrotation Yrotation Xrotation
				JOINT lowerneck
				{
					OFFSET -0.013390 0.211636 -0.033468
					CHANNELS 3 Zrotation Yrotation Xrotation
					JOINT upperneck
					{
						OFFSET 0.010113 0.088937 0.050410
						CHANNELS 3 Zrotation Yrotation Xrotation
						End Site
						{
							OFFSET 0.000000 0.000000 0.000000
						}
					}
				}
				JOINT lclavicle
				{
					OFFSET 0.071702 0.114000 -0.018898
					CHANNELS 3 Zrotation Yrotation Xrotation
					JOINT lshoulder
					{
						OFFSET 0.122921 0.045205 -0.019046
						CHANNELS 3 Zrotation Yrotation Xrotation
						JOINT lelbow
						{
							OFFSET 0.255332 -0.015649 -0.022946
							CHANNELS 3 Zrotation Yrotation Xrotation
							JOINT lwrist
							{
								OFFSET 0.265709 0.012698 -0.007375
								CHANNELS 3 Zrotation Yrotation Xrotation
								End Site
								{
									OFFSET 0.000000 0.000000 0.000000
								}
							}
						}
					}
				}
				JOINT rclavicle
				{
					OFFSET -0.082954 0.112472 -0.023707
					CHANNELS 3 Zrotation Yrotation Xrotation
					JOINT rshoulder
					{
						OFFSET -0.113228 0.046853 -0.008472
						CHANNELS 3 Zrotation Yrotation Xrotation
						JOINT relbow
						{
							OFFSET -0.260127 -0.014369 -0.031269
							CHANNELS 3 Zrotation Yrotation Xrotation
							JOINT rwrist
							{
								OFFSET -0.269108 0.006794 -0.006027
								CHANNELS 3 Zrotation Yrotation Xrotation
								End Site
								{
									OFFSET 0.000000 0.000000 0.000000
								}
							}
						}
					}
				}
			}
		}
	}
}
MOTION
Frames: 16
Frame Time: 0.033333
-1.726419 0.248529 0.989048 77.594550 -2.180066 91.602629 -1.132561 -5.582555 -21.032475 -3.906360 1.893595 2.441136 0.575383 7.757621 6.568246 0.000000 -0.000000 0.000000 -4.744018 -3.853376 7.128563 0.610068 5.077034 21.390209 7.473036 -2.341831 -12.251792 0.000000 -0.000000 0.000000 -1.300636 8.890708 16.599136 -0.520888 2.728589 0.240833 0.884992 4.855367 1.447353 -1.548670 10.103447 -13.931023 -3.468721 0.384464 8.943555 -30.154753 3.581140 -2.222734 -49.078006 0.869446 12.379676 5.175403 -25.922466 4.717813 1.996949 -5.708369 -7.460173 33.908147 9.341369 5.877851 40.923374 18.700116 8.050086 -5.843033 0.937104 -15.250133 -0.358498 -0.090009 -2.715399 
-1.700690 0.252369 0.990452 77.608703 -2.861188 91.153314 -1.748364 -7.335050 -20.944374 -4.845029 0.728635 6.380419 2.266626 8.099554 4.946629 0.000000 -0.000000 0.000000 -5.633790 -2.969671 6.325335 0.516515 5.727607 26.185308 8.735183 -2.754865 -9.061819 0.000000 -0.000000 0.000000 -2.545132 9.508011 16.804965 -0.882720 2.926129 -0.054460 0.599830 4.822815 1.656640 -0.977532 9.749654 -14.861129 -2.779605 0.086264 8.653094 -29.819612 3.189757 -2.098105 -48.684153 1.064642 12.395030 5.784287 -25.245784 3.582937 1.821009 -5.434696 -7.307734 34.224713 10.019076 5.500029 40.686428 18.706252 8.559006 -6.266948 1.154732 -16.420259 0.629653 -0.256670 -3.502554 
-1.672996 0.255107 0.993362 78.079753 -3.059407 89.755522 -2.768333 -7.973602 -19.226226 -5.179543 -0.203361 9.325436 3.526563 8.493039 3.028174 0.000000 -0.000000 0.000000 -5.710197 -2.227918 5.809009 0.252595 6.187544 31.752399 10.273786 -2.693679 -2.802264 0.000000 -0.000000 0.000000 -3.221159 9.619086 17.542510 -1.113899 3.134614 0.384069 0.354457 4.932868 1.522831 -0.588385 8.609883 -15.330271 -2.287026 -0.066837 8.206502 -29.901487 2.340769 -2.274148 -47.818975 1.131382 11.951122 5.819445 -24.030041 2.721384 1.450817 -6.094954 -6.629530 34.084199 10.924299 5.428031 40.775198 18.577225 8.725191 -6.985203 1.843953 -17.927615 1.447567 -0.149287 -4.402029 
-1.644010 0.257377 0.995635 79.378282 -2.734832 88.855142 -4.080518 -8.198316 -17.067362 -5.186315 -1.602833 10.519174 5.344792 9.379519 1.913691 0.000000 -0.000000 0.000000 -5.070256 -1.646420 4.034684 0.069016 5.624766 38.179781 11.194484 -3.599533 5.602716 0.000000 -0.000000 0.000000 -3.888883 9.096929 17.300878 -1.045112 3.522007 0.170444 0.331350 4.746262 1.717169 0.197922 7.423531 -14.807752 -1.306193 0.267535 7.904033 -29.816454 1.927865 -2.234810 -47.229457 1.193648 11.911583 6.138489 -23.657282 1.929207 1.132935 -6.111651 -6.143054 33.955858 11.104224 4.854744 40.879357 18.398635 9.202811 -7.461235 2.193561 -19.055436 2.214730 -0.130224 -5.078282 
-1.615372 0.259477 0.997063 81.009823 -2.448565 87.829608 -5.384138 -8.374390 -14.158751 -5.242554 -3.483844 11.214140 7.627597 10.324956 0.230330 0.000000 -0.000000 0.000000 -4.424783 -0.954436 2.012530 0.458547 5.264866 44.749486 10.743384 -5.036938 12.048658 0.000000 -0.000000 0.000000 -4.532483 8.204194 17.601639 -0.991226 3.539841 -0.709667 0.182900 4.383567 1.866057 1.059889 6.555261 -14.118789 -1.039360 0.586486 8.617710 -29.514294 2.252136 -2.212325 -46.429192 1.031019 11.430151 5.783188 -24.088982 1.992396 0.661073 -6.262574 -6.241515 33.613960 10.848228 4.034364 41.604810 18.147583 10.025246 -8.171012 3.189962 -19.818041 3.117498 -0.053958 -5.990405 
-1.589316 0.261468 0.999150 83.295404 -2.301466 86.655483 -6.358614 -7.929558 -11.071242 -5.819423 -5.786490 11.374789 8.164324 10.299440 -0.997702 0.000000 -0.000000 0.000000 -3.839886 -0.499968 -0.599529 0.497701 3.872160 51.976051 7.796021 -9.560199 14.422847 0.000000 -0.000000 0.000000 -5.101213 7.199582 17.253822 -0.688349 3.489591 0.270836 -0.094262 3.661579 1.907752 1.904150 5.819588 -14.458227 -1.376441 0.027765 8.862723 -29.689363 1.742401 -1.991704 -45.316459 -0.122265 10.894590 5.717430 -24.548713 1.185818 0.254887 -5.665212 -7.030653 33.372981 10.986237 3.056735 41.434078 18.059704 10.544131 -8.907587 4.367668 -20.604546 4.417849 -0.076443 -6.783929 
-1.563723 0.263120 1.002187 85.291322 -1.958245 85.465337 -6.813862 -6.761118 -7.631872 -6.213284 -8.057950 10.885279 7.211882 9.930646 -2.226492 0.000000 -0.000000 0.000000 -3.163815 -0.154369 -2.973843 0.296969 2.237775 56.977675 7.180243 -9.515700 8.508730 0.000000 -0.000000 0.000000 -5.168959 6.063432 17.737725 -0.863791 3.187104 -0.307821 -0.424914 3.448024 1.838090 2.457487 6.127901 -13.377169 -0.797875 -0.481698 9.611491 -29.077874 0.804141 -1.618557 -45.168038 -0.572161 10.742958 6.164203 -24.711626 -0.004221 0.971390 -5.679361 -6.920394 33.151405 11.169648 2.613877 41.588112 17.112421 10.111866 -9.574062 5.444962 -20.679462 5.392782 0.869008 -7.948178 
-1.540170 0.265181 1.005481 87.601141 -1.496141 84.316327 -7.103122 -5.907436 -4.183445 -6.241258 -10.143935 10.204137 6.705432 9.582033 -3.272628 0.000000 -0.000000 0.000000 -2.415683 0.288123 -5.109677 -0.835698 0.297638 59.118263 5.832050 -11.259949 4.976062 0.000000 -0.000000 0.000000 -5.031694 4.840400 17.933883 -0.805131 3.018897 -0.300473 -0.483897 2.881215 2.030127 2.852087 6.001023 -12.717926 -1.265052 -0.987711 10.142703 -28.859180 0.036094 -1.606950 -45.150323 -2.094240 10.308796 6.471177 -24.452149 -0.658246 0.579729 -6.290718 -6.760036 32.573796 11.158929 1.966380 41.656006 16.543443 9.949747 -10.161400 6.520798 -20.998547 5.935030 1.336793 -9.091241 
-1.517028 0.267269 1.008233 89.810732 -1.045516 83.657678 -7.221260 -4.881284 -1.315402 -6.162096 -12.201826 9.397907 6.342783 9.267250 -4.162810 0.000000 -0.000000 0.000000 -2.014927 0.643974 -7.962553 -0.923076 -0.768405 59.915719 5.425921 -11.575652 1.045506 0.000000 -0.000000 0.000000 -4.950753 3.445105 18.134843 -0.682668 2.693496 -1.172138 -0.550104 2.368336 1.943336 3.246911 5.992748 -11.605642 -1.723057 -1.166887 11.788945 -28.592276 -0.064330 -1.609268 -45.270032 -3.332656 10.327805 6.550631 -24.688639 -0.675442 0.788934 -6.474574 -6.663375 32.351961 10.461516 1.518811 41.650692 15.993775 9.837692 -10.603010 7.598362 -20.775862 7.002575 2.185595 -9.707134 
-1.495270 0.269460 1.010725 91.606803 -0.574111 82.754302 -7.182480 -3.898470 2.020910 -5.934165 -14.214087 8.101785 6.234872 9.055670 -4.806094 0.000000 -0.000000 0.000000 -1.803604 1.283279 -10.379523 -1.201567 -1.709684 58.474148 5.140148 -12.402363 -2.121095 0.000000 -0.000000 0.000000 -4.751406 2.269059 18.284955 -0.456488 2.719331 -1.175873 -0.520171 1.658302 2.080935 3.382612 6.365200 -11.075564 -1.971321 -1.388210 12.498653 -28.485150 -0.465412 -1.537912 -45.412163 -4.940067 10.457757 6.677475 -25.606760 -0.914005 0.190063 -6.051951 -7.037874 31.986994 10.079993 0.823075 41.779493 15.522175 10.034495 -11.399405 9.007837 -20.920462 7.858510 2.656357 -10.509430 
-1.473696 0.271471 1.012055 93.375888 -0.136290 81.992269 -6.933480 -2.594836 5.078161 -5.627050 -16.207141 6.838205 5.973377 8.521170 -5.187742 0.000000 -0.000000 0.000000 -2.012245 1.558264 -12.735382 -1.313541 -2.389783 55.638097 5.688444 -12.053199 -4.918666 0.000000 -0.000000 0.000000 -4.405597 0.901559 19.019576 -0.358895 2.238686 -2.014286 -0.517489 1.194090 1.781980 3.682296 6.411809 -9.725891 -2.772832 -1.195584 14.060657 -28.064108 -0.637029 -1.030172 -45.755245 -5.981913 10.385372 6.665652 -27.047257 -0.782980 0.424343 -6.211709 -7.141359 31.494930 9.782911 1.033610 42.436686 15.372627 9.965326 -12.191631 10.312355 -20.984331 7.843685 3.126978 -11.111676 
-1.453668 0.273415 1.013013 94.900328 0.341203 81.423228 -6.585877 -1.791897 7.500583 -5.428520 -17.848221 6.246858 5.824725 8.258288 -5.851706 0.000000 -0.000000 0.000000 -2.352210 1.723134 -15.039165 -1.138983 -2.892493 51.415191 6.398667 -11.309047 -6.410134 0.000000 -0.000000 0.000000 -3.926904 -0.203137 19.420736 -0.082985 1.970642 -2.154476 -0.423549 0.514655 1.794469 3.579201 6.786473 -9.842723 -3.356567 -1.235710 14.757590 -27.896581 -0.757350 -1.633597 -46.061206 -7.487759 10.816978 6.073600 -27.897998 0.232280 -0.241011 -6.635782 -6.811158 31.073798 9.403556 0.127750 42.835707 15.536395 10.350901 -12.946344 11.361014 -21.119025 8.594525 3.411544 -11.100348 
-1.434152 0.275008 1.012173 96.467395 0.844034 81.854708 -6.129219 -0.678000 8.270782 -5.100118 -19.008001 6.495875 6.809824 6.663406 -6.757370 0.000000 -0.000000 0.000000 -3.028164 1.289040 -18.147261 -1.081733 -3.792597 46.284758 6.550157 -10.135733 -6.987506 0.000000 -0.000000 0.000000 -3.586151 -1.501120 18.703674 0.249005 1.943034 -2.808282 -0.524841 0.160202 1.442449 4.864297 6.725559 -7.055650 -4.408353 -1.182897 14.214808 -26.527869 -0.587757 0.143664 -48.033966 -10.420193 10.141941 6.491280 -28.244038 1.856224 -4.242238 -4.599040 -5.937008 30.631354 8.381884 -0.258087 43.475837 15.578052 10.075763 -12.678783 13.117710 -21.628528 6.537767 2.387116 -8.892548 
-1.414094 0.276228 1.010989 97.494676 1.325647 81.607641 -5.625983 -0.235997 9.949310 -5.021540 -19.911859 6.663664 6.808554 6.360957 -7.885042 0.000000 -0.000000 0.000000 -3.377835 1.010812 -19.625813 -1.024971 -4.671552 39.639295 6.995994 -10.079914 -6.569439 0.000000 -0.000000 0.000000 -3.145310 -1.688933 18.725016 0.694955 2.033411 -2.804195 0.097726 -1.016802 1.485298 4.687658 6.614931 -6.962019 -5.372621 -0.819833 14.940108 -26.521787 -1.419011 0.144296 -48.807187 -11.754763 10.609911 6.353032 -28.783040 2.358898 -4.044738 -4.913704 -5.734956 29.883560 8.149796 -0.807332 43.710048 15.914131 10.361399 -13.234861 14.205140 -21.583865 6.241741 2.644996 -8.833869 
-1.393686 0.277150 1.008985 98.214920 1.438949 81.606844 -5.383967 0.326833 11.355826 -4.851998 -20.357029 6.764291 6.875062 5.879199 -8.731770 0.000000 -0.000000 0.000000 -3.764613 0.197346 -20.672646 -1.150827 -5.564129 31.804153 7.846400 -9.542119 -4.310183 0.000000 -0.000000 0.000000 -2.782237 -2.324807 18.951052 0.597630 1.222509 -3.324302 0.259797 -0.920788 0.953468 4.725305 6.262747 -5.721848 -4.674917 -0.662885 15.580018 -25.881645 -1.606443 0.247954 -49.437885 -12.714985 10.804689 5.835865 -29.558204 3.049837 -3.618701 -4.845772 -5.324286 29.938203 8.093094 -0.502794 44.009557 16.228757 10.311622 -13.731171 15.057655 -21.226756 5.896774 2.812436 -8.236529 
-1.372615 0.278059 1.005689 98.643394 1.542863 81.785004 -5.000493 0.940492 12.710664 -4.979914 -20.367257 6.773313 6.857499 5.797330 -10.210558 0.000000 -0.000000 0.000000 -3.925872 -0.672948 -21.166846 -0.842969 -6.691690 23.210253 8.662774 -9.361556 -2.395615 0.000000 -0.000000 0.000000 -2.498970 -2.254181 18.277588 0.715841 0.933506 -3.009584 0.645862 -1.463541 1.027489 4.785465 5.969300 -5.387487 -4.167180 -0.825066 15.812398 -25.608268 -2.487043 0.393022 -50.069530 -13.913336 11.157804 5.852590 -29.914814 3.214632 -3.355393 -5.480220 -5.199048 29.707462 8.296816 -0.682919 43.865325 16.820606 10.242913 -13.802819 15.321344 -20.790717 5.413450 2.695090 -7.851230 
